<?xml version="1.0" encoding="UTF-8"?>
<!-- Created with Inkscape (http://www.inkscape.org/) -->
<svg width="1080" height="700" version="1.1" viewBox="0 0 285.75 185.21" xmlns="http://www.w3.org/2000/svg">
 <g fill-rule="evenodd">
  <rect x=".65524" y="24.806" width="285.03" height="134.92" rx="0" ry="0" fill="#5a7247" style="paint-order:markers stroke fill"/>
  <g transform="matrix(2.5822 0 0 2.5822 -266.88 -133.59)" stroke-width=".38727">
   <g fill="#fff6e7" stroke-width="2.3864">
    <path transform="translate(89.853 1.4474)" d="m25.185 91.214c0.19778-0.20723 0.49431-0.39004 0.81131-0.57526 0.28636-0.16732 0.518-0.57445 0.51901-0.90657l0.02158-7.1443c0.0015-0.51152-0.27773-1.2578-0.74543-1.3833-0.20216-0.05427-0.42407-0.14897-0.6507-0.41329-0.24182-0.28204-0.10473-0.74 0.22812-0.90758 0.92578-0.4661 2.1686-0.82495 3.8925-1.2743 0.3632-0.09466 0.6716 0.13378 0.68845 0.50874l0.04486 0.99817c0.01625 0.36153 0.18534 0.40455 0.41633 0.12626 2.2225-2.6777 6.4872-2.4897 8.1161 0.24466 0.45673 0.76668 0.56633 2.2423 0.57187 3.1393l0.03891 6.3027c0.0019 0.3101 0.23209 0.6684 0.52781 0.76058 0.33089 0.10314 0.66034 0.19053 0.90592 0.3778 0.24197 0.18451 0.26749 0.69331 0.1282 0.96988-0.06413 0.12733-0.12905 0.22057-0.19392 0.29404-0.17558 0.19885-0.58361 0.28531-0.84906 0.2843-0.73032-0.0028-2.1373 0.02654-3.1025 0.0268-0.27861 7.4e-5 -0.73195-0.09963-0.85411-0.33676-0.12272-0.23822-0.17736-1.0182-0.1811-1.7156l-0.04127-7.6767c-0.0024-0.44541-0.08565-1.1708-0.33476-1.5368-0.72939-1.0716-2.4926-2.0057-4.3938 0.55792-0.37557 0.50643-0.61634 1.4698-0.61141 2.1006l0.03531 4.5199c0.0045 0.57702 0.12366 1.5353 0.52561 1.943 0.2065 0.20943 0.42774 0.31569 0.65054 0.411 0.25516 0.10914 0.45635 0.43556 0.45635 0.71337v0.33a0.53814 0.53814 134.53 0 1-0.52925 0.53807l-5.2361 0.08655a0.98618 0.98618 29.294 0 1-0.86632-0.48603c-0.1284-0.21829-0.1949-0.6614 0.01095-0.8771z" style="paint-order:markers stroke fill"/>
    <path transform="translate(88.795 1.4474)" d="m41.553 79.694c0.90846-0.53058 2.1781-0.84443 3.5322-1.1076 0.55488-0.10787 1.0661 0.2682 1.1004 0.83249 0.15424 2.5395-0.02785 6.7432 0.08442 9.743 0.01208 0.32282 0.18488 0.79671 0.42387 1.0147 1.6892 1.5406 3.9683 0.29657 4.2513-0.92101 0 0 0.21181-0.45845 0.25936-0.70397 0.34032-1.7574 0.26745-4.9821 0.22237-6.2482-0.01043-0.29291-0.22992-0.64508-0.4872-0.78581-0.52947-0.28962-0.9145-0.50614-1.1153-0.7403-0.184-0.21454-0.02491-0.69949 0.20073-0.88421 0.89963-0.73647 2.9531-1.2413 4.4802-1.3443 0.29444-0.01986 0.54485 0.2196 0.55597 0.51459 0.17146 4.5473-0.12512 7.4012 0.04532 10.747 0.01253 0.24591 0.14304 0.60739 0.30792 0.7907 0.17294 0.19227 0.42537 0.41634 0.95938 0.75304 0.21207 0.13372 0.32836 0.42988 0.25447 0.67001l-0.16262 0.52853s-0.02364 0.01525-0.03705 0.01852c-0.79887 0.19526-2.2069 0.14412-2.9778 0.09606-0.29962-0.01868-0.78559-0.09476-1.0433-0.24723-0.33122-0.19592-0.6144-0.51193-0.81683-1.0298-0.11383-0.29121-0.3117-0.33529-0.51843-0.10102-2.5611 2.9024-6.5661 1.7691-7.9905-0.50931-0.37526-0.60027-0.4731-1.7686-0.4731-2.4807v-5.9814c0-0.24068-0.09129-0.61484-0.26681-0.77804-0.44025-0.40936-1.0459-0.44252-1.2952-0.75924-0.23242-0.29526 0.16973-0.89029 0.5063-1.0869z" style="paint-order:markers stroke fill"/>
    <path transform="translate(88.266 1.4474)" d="m56.762 78.844c0.64623-0.19535 1.2925-0.17916 1.9387-0.19404 0.32104-0.0074 0.78391-0.20357 0.94095-0.48264 0.267-0.47447 0.29446-1.0094 0.4226-1.5878 0.07407-0.33436 0.4308-0.71719 0.76775-0.78341 0.2931-0.0576 0.58375-0.06845 0.82726-0.04484 0.31535 0.03058 0.58975 0.42236 0.63974 0.73896l0.02064 0.1307c0.03991 0.334 0.01722 0.90351-0.05932 1.5023-0.04057 0.31741 0.16797 0.53174 0.48699 0.50104 0.77854-0.07492 1.5571-0.05917 2.3356 0.07777 0.35943 0.06323 0.75526 0.42364 0.78531 0.78688 0.02921 0.35313-0.04672 0.70626-0.36224 1.0594h-2.5644c-0.38445 0-0.68221 0.31136-0.66913 0.69558 0.08748 2.5704 0.03464 4.9304-9e-3 7.3042-0.01055 0.5747 0.23356 1.4431 0.65508 1.8329 1.1828 1.094 2.1311 0.41685 2.5624-0.23021 0.1881-0.28223 0.29376-0.8378 0.417-1.1557 0.06421-0.16563 0.20965-0.42833 0.31197-0.59203 0.33379-0.32352 0.72028-0.32445 1.0517-0.1801 0.2892 0.12594 0.46992 0.5861 0.44442 0.90237-0.41797 5.1826-6.432 4.595-8.366 1.9138-0.50441-0.69927-0.60161-2.1569-0.62097-3.0287-0.0446-2.0088-0.04385-3.9908 0.01998-6.4155 0.01199-0.45536-0.15588-1.2657-0.57522-1.2941-0.2597-0.01757-0.57428 0.03879-0.89862 0.06472-0.29748 0.02379-0.59292-0.23919-0.66022-0.53042-0.07386-0.31958-0.10781-0.66918 0.15692-0.99131z" style="paint-order:markers stroke fill"/>
    <path transform="translate(88.266 1.4474)" d="m68.749 79.416c1.2428-0.63306 2.7578-0.83772 3.872-0.91365 0.28539-0.01945 0.54266 0.20245 0.5559 0.48842 0.0414 0.89472-0.05479 1.6518-0.11284 2.4472 1.5877-1.9957 3.2616-3.2802 5.1548-2.7559 0.35574 0.09852 0.79548 0.48992 0.90905 0.84073 0.10958 0.33847 0.12155 0.64441 0.07085 0.92946-0.11996 0.67449-1.0641 1.1549-1.7434 1.2718-4.3966 0.75661-4.7085 4.0924-4.035 8.6054 0.02756 0.18471 0.18588 0.40357 0.35191 0.4891l0.92207 0.475c0.14303 0.2537 0.16935 0.5074 0.0492 0.76109-0.21544 0.45489-1.0551 0.64684-1.5646 0.64684l-4.1255-1e-6c-0.26094 0-0.66965-0.08935-0.86331-0.26318-0.295-0.26479-0.4553-0.62966-0.28803-1.1159 0.08003-0.23261 0.40056-0.40003 0.63795-0.46486 0.14633-0.03996 0.25864-0.09403 0.3483-0.15372 0.29864-0.19882 0.48886-0.73988 0.50947-1.1004 0.14712-2.5736 0.22268-5.1472 0.10943-7.7208 0.05828-0.46402-0.64029-0.48126-1.2765-0.89527-0.16364-0.10649-0.37537-0.34543-0.45328-0.52473-0.01474-0.03392-0.02677-0.06581-0.03632-0.09584-0.11106-0.34944 0.63454-0.76052 1.0079-0.95071z" style="paint-order:markers stroke fill"/>
    <path transform="translate(88.795 1.4474)" d="m81.074 79.34c0.66512 0.03506 2.0557-0.01949 2.9826-0.74641 0.08084-0.0634 0.22491-0.10922 0.32514-0.08601 0.05634 0.01304 0.11377 0.0311 0.16845 0.06025 0.19544 0.10419 0.2546 0.49796 0.25872 0.72592 0.07097 3.9248-0.08517 6.7417-0.10802 10.106-0.0015 0.22686 0.02779 0.59498 0.10636 0.8089 0.23638 0.64362 0.65224 0.76533 1.0317 0.765 0.05164-4.5e-5 0.13593-0.0034 0.18623 0.0079 0.11151 0.025 0.25832 0.09298 0.36152 0.18713 0.08771 0.08002 0.14549 0.27371 0.16622 0.39252 0.04581 0.26245 0.01513 0.49937-0.32194 0.74599-0.1837 0.1344-0.54061 0.20919-0.76861 0.2106l-5.1219 0.03167c-0.25307 0.0016-0.6279-0.12083-0.7781-0.32377-0.26136-0.35313-0.2108-0.67382 0.08806-1.0025 0.1182-0.12997 0.37428-0.23525 0.543-0.28454 0.60198-0.17586 1.0152-0.59586 0.94855-1.2023l-0.10634-7.7987c-0.0027-0.19469-0.12766-0.45921-0.30922-0.52677-0.29105-0.1083-0.59097-0.10573-0.85012-0.37192-0.13412-0.13776-0.26031-0.43136-0.28456-0.62207-0.04116-0.32366-0.03585-0.77072 0.03839-1.0442 0.04599-0.1694 0.35919-0.21214 0.54828-0.17515l0.20623 0.04034c0.1891 0.03699 0.49706 0.09137 0.68937 0.10151z" style="paint-order:markers stroke fill"/>
   </g>
   <path transform="translate(89.324 1.4474)" d="m86.782 78.716c0.49316-0.15559 0.93344-0.12222 1.4801-0.03936 0.32391 0.04909 0.51264-0.16207 0.4442-0.4827-1.7149-8.0335 9.1019-9.0124 9.6971-3.2963 0.05621 0.53988-0.21587 1.3952-0.66258 1.6989-0.77313 0.52555-1.5367 0.11698-1.9804-0.19399-0.19272-0.13508-0.32507-0.44261-0.32917-0.67812-0.04997-2.8694-3.1922-3.4129-3.8646-0.61725-0.13909 0.57832-0.13412 1.5568-0.03743 2.1445 0.19988 1.2148 0.71156 1.273 1.3981 1.3178 0.14353 0.0094 0.37619 0.0275 0.5199 0.03709 0.5796 0.03871 1.1916 0.05509 1.862 0.07587 0.23756 0.0074 0.54781 0.17046 0.6381 0.38994 0.11846 0.28797 0.14658 0.59099 0.04146 0.91622-0.09282 0.28716-0.49413 0.50452-0.79648 0.51646-0.6917 0.0273-1.4604 0.01609-2.3533-0.05719-0.28101-0.02307-0.50657 0.18141-0.50439 0.46339l0.07014 9.0486c0.12959 0.81256 1.0478 0.72697 1.4585 1.1184 0.13458 0.12825 0.18972 0.44144 0.20234 0.62961 0.01166 0.17392 0.0028 0.34411-0.09241 0.49859-0.16624 0.26974-0.71902 0.34694-1.0423 0.34694h-4.8255c-0.24471 0-0.62861-0.08048-0.81773-0.23507-0.38786-0.31703-0.3773-0.67582 0.01763-1.1189 0.1453-0.16303 0.45047-0.33419 0.65718-0.40565l0.21368-0.07387a0.62401 0.62401 125.55 0 0 0.42012-0.58787l0.02806-9.2306c7.16e-4 -0.23564-0.19028-0.41562-0.42091-0.36857-0.33274 0.06789-0.62024 0.14456-1.1017-0.06047-0.23886-0.10172-0.60482-0.35056-0.69554-0.59056-0.15958-0.42217 0.04584-0.91312 0.19905-1.0349 0 0 0.10688-0.10892 0.17684-0.131z" fill="#ff7420" stroke-width="2.3864" style="paint-order:markers stroke fill"/>
   <path transform="translate(88.266 1.4474)" d="m104.57 91.491-3.9968-9.4119c-0.13302-0.31324-0.37146-0.8202-0.62297-1.0474-0.39521-0.35706-0.85064-0.43308-1.2913-0.57797-0.18428-0.06059-0.45064-0.22889-0.5798-0.37581-0.14456-0.16443-0.23821-0.34275-0.18352-0.56152 0.08528-0.34117 0.64847-0.56038 1.0026-0.59959 2.5707-0.28459 4.4314-0.25319 6.2996-0.10004 0.17773 0.01457 0.39198 0.15446 0.50291 0.29313 0.11756 0.14697 0.21954 0.2974 0.0966 0.49782-0.11268 0.18369-0.43559 0.35166-0.62527 0.45664-0.13032 0.07213-0.25194 0.14426-0.36308 0.2164-0.38949 0.25281-0.497 0.92205-0.33379 1.3606 0.53106 1.4271 1.4507 3.7868 2.1533 5.6255 0.0834 0.21838 0.22501 0.22103 0.31655 0.0058l2.4193-5.6886c0.0866-0.20352 0.18837-0.56108 0.0976-0.75999-0.15267-0.33444-0.55914-0.48863-0.95312-0.65952-0.20145-0.08738-0.34135-0.35-0.32007-0.56997l0.0345-0.35666c0.021-0.21739 0.2147-0.40626 0.43273-0.41918 1.5326-0.09081 3.0651-0.08438 4.5977-0.0106 0.18948 0.0091 0.35023 0.17126 0.35912 0.36077l0.0234 0.49934c9e-3 0.18951-0.12091 0.41322-0.29369 0.49152-0.4325 0.19599-0.87855 0.36873-1.245 0.67785-0.16852 0.14214-0.35061 0.44975-0.43872 0.65261l-6.8249 15.714c-0.23513 0.54138-0.71676 1.3703-1.1802 1.7335-1.4728 1.1544-3.8077 1.5214-5.858-0.45095-0.24712-0.23772-0.5326-0.70886-0.62363-1.0394-0.16806-0.61024-0.20871-1.2321 0.07206-1.8831 0.12303-0.28528 0.46178-0.66375 0.73293-0.81546 0.61308-0.34303 1.2154-0.31992 1.8044 0.15641 0.1956 0.15818 0.43953 0.49668 0.4698 0.74431 0.0231 0.1891 0.0181 0.40069 0.0105 0.61441-0.0131 0.3647 0.15619 0.91344 0.4035 1.1821 0.75007 0.81494 1.3363 0.61055 1.8763 0.11834 0.31717-0.28911 0.66124-0.88915 0.81962-1.2883l1.2292-3.0977a2.2217 2.2217 89.318 0 0-0.0201-1.6878z" fill="#ff7420" stroke-width="2.3864" style="paint-order:markers stroke fill"/>
   <path d="m168.39 80.133c4.3029 0.88929 5.945-1.3164 6.1821-4.3689-4.1906-1.1066-6.2465 0.74015-6.1821 4.3689z" fill="#88b04b" style="paint-order:markers stroke fill"/>
  </g>
 </g>
</svg>
