<?xml version="1.0" encoding="UTF-8"?>
<!-- Created with Inkscape (http://www.inkscape.org/) -->
<svg width="700" height="700" version="1.1" viewBox="0 0 185.21 185.21" xmlns="http://www.w3.org/2000/svg">
 <g transform="matrix(1.8175 0 0 1.8175 -77.689 -79.348)" fill-rule="evenodd" stroke-width=".55021">
  <g stroke-width="1.0816">
   <path transform="matrix(3.1346 0 0 3.1346 -198.99 -172.28)" d="m86.782 78.716c0.49316-0.15559 0.93344-0.12222 1.4801-0.03936 0.32391 0.04909 0.51264-0.16207 0.4442-0.4827-1.7149-8.0335 9.1019-9.0124 9.6971-3.2963 0.05621 0.53988-0.21587 1.3952-0.66258 1.6989-0.77313 0.52555-1.5367 0.11698-1.9804-0.19399-0.19272-0.13508-0.32507-0.44261-0.32917-0.67812-0.04997-2.8694-3.1922-3.4129-3.8646-0.61725-0.13909 0.57832-0.13412 1.5568-0.03743 2.1445 0.19988 1.2148 0.71156 1.273 1.3981 1.3178 0.14353 0.0094 0.37619 0.0275 0.5199 0.03709 0.5796 0.03871 1.1916 0.05509 1.862 0.07587 0.23756 0.0074 0.54781 0.17046 0.6381 0.38994 0.11846 0.28797 0.14658 0.59099 0.04146 0.91622-0.09282 0.28716-0.49413 0.50452-0.79648 0.51646-0.6917 0.0273-1.4604 0.01609-2.3533-0.05719-0.28101-0.02307-0.51285 0.18138-0.5184 0.4633l-0.17377 8.8251 0.06878 0.25792c0.12913 0.80965 0.93921 0.72757 1.3185 1.1142 0.13039 0.13292 0.18352 0.44841 0.25922 0.61985 0.02439 0.05523 0.04565 0.10424 0.05228 0.15084 0.04248 0.29871-0.66872 0.37181-0.99191 0.38053l-4.3874 0.11841c-0.24462 0.0066-0.62278-0.07239-0.83636-0.19182-0.39344-0.22001-0.43528-0.34891-0.07593-0.70378 0.15551-0.15357 0.44046-0.36406 0.6235-0.48378l0.31404-0.20539a0.82223 0.82223 118.49 0 0 0.37218-0.68562l0.02804-9.1819c7.2e-4 -0.23564-0.26778-0.31868-0.40066-0.50123-0.29678-0.40772-2.2332-0.75247-1.9124-1.5443 0.0048-0.01191 0.01353-0.02302 0.02645-0.03328 0 0 0.10688-0.10892 0.17684-0.131z" fill="#ff7420" style="paint-order:markers stroke fill"/>
   <path transform="matrix(3.1346 0 0 3.1346 -220.56 -172.64)" d="m104.57 91.491-3.9968-9.4119c-0.13302-0.31324-0.37146-0.8202-0.62297-1.0474-0.39521-0.35706-0.85064-0.43308-1.2913-0.57797-0.18428-0.06059-0.45064-0.22889-0.5798-0.37581-0.14456-0.16443-0.23821-0.34275-0.18352-0.56152 0.08528-0.34117 0.64847-0.56038 1.0026-0.59959 2.5707-0.28459 4.4314-0.25319 6.2996-0.10004 0.17773 0.01457 0.39198 0.15446 0.50291 0.29313 0.11756 0.14697 0.21954 0.2974 0.0966 0.49782-0.11268 0.18369-0.43559 0.35166-0.62527 0.45664-0.13032 0.07213-0.25194 0.14426-0.36308 0.2164-0.38949 0.25281-0.497 0.92205-0.33379 1.3606 0.53106 1.4271 1.4507 3.7868 2.1533 5.6255 0.0834 0.21838 0.22501 0.22103 0.31655 0.0058l2.4193-5.6886c0.0866-0.20352 0.18837-0.56108 0.0976-0.75999-0.15267-0.33444-0.55914-0.48863-0.95312-0.65952-0.20145-0.08738-0.34135-0.35-0.32007-0.56997l0.0345-0.35666c0.021-0.21739 0.2147-0.40626 0.43273-0.41918 1.5326-0.09081 3.0651-0.08438 4.5977-0.0106 0.18948 0.0091 0.35023 0.17126 0.35912 0.36077l0.0234 0.49934c9e-3 0.18951-0.12091 0.41322-0.29369 0.49152-0.4325 0.19599-0.87855 0.36873-1.245 0.67785-0.16852 0.14214-0.35061 0.44975-0.43872 0.65261l-6.8249 15.714c-0.23513 0.54138-0.71676 1.3703-1.1802 1.7335-1.4728 1.1544-3.8077 1.5214-5.858-0.45095-0.24712-0.23772-0.5326-0.70886-0.62363-1.0394-0.16806-0.61024-0.20871-1.2321 0.07206-1.8831 0.12303-0.28528 0.46178-0.66375 0.73293-0.81546 0.61308-0.34303 1.2154-0.31992 1.8044 0.15641 0.1956 0.15818 0.43953 0.49668 0.4698 0.74431 0.0231 0.1891 0.0181 0.40069 0.0105 0.61441-0.0131 0.3647 0.15619 0.91344 0.4035 1.1821 0.75007 0.81494 1.3363 0.61055 1.8763 0.11834 0.31717-0.28911 0.66124-0.88915 0.81962-1.2883l1.2292-3.0977a2.2217 2.2217 89.318 0 0-0.0201-1.6878z" fill="#ff7420" style="paint-order:markers stroke fill"/>
   <path transform="matrix(3.1346 0 0 3.1346 -32.196 -172.32)" d="m25.185 91.214c0.19778-0.20723 0.49431-0.39004 0.81131-0.57526 0.28636-0.16732 0.518-0.57445 0.51901-0.90657l0.02158-7.1443c0.0015-0.51152-0.27773-1.2578-0.74543-1.3833-0.20216-0.05427-0.42407-0.14897-0.6507-0.41329-0.24182-0.28204-0.10473-0.74 0.22812-0.90758 0.92578-0.4661 2.1686-0.82495 3.8925-1.2743 0.3632-0.09466 0.6716 0.13378 0.68845 0.50874l0.04486 0.99817c0.01625 0.36153 0.18534 0.40455 0.41633 0.12626 2.2225-2.6777 6.4872-2.4897 8.1161 0.24466 0.45673 0.76668 0.56633 2.2423 0.57187 3.1393l0.03891 6.3027c0.0019 0.3101 0.23209 0.6684 0.52781 0.76058 0.33089 0.10314 0.66034 0.19053 0.90592 0.3778 0.24197 0.18451 0.27502 0.69971 0.11275 0.9629-0.05345 0.0867-0.10779 0.14905-0.16221 0.19708-0.19938 0.17598-0.605 0.1618-0.8637 0.14835-0.72706-0.03778-2.1645 0.06038-3.1487 0.08302-0.27832 0.0064-0.74418-0.07717-0.86704-0.31297-0.08048-0.15446-0.11984-0.8583-0.12359-1.5557l-0.04127-7.6767c-0.0024-0.44541-0.08565-1.1708-0.33476-1.5368-0.72939-1.0716-2.4926-2.0057-4.3938 0.55792-0.37557 0.50643-0.61634 1.4698-0.61141 2.1006l0.03531 4.5199c0.0045 0.57702 0.12366 1.5353 0.52561 1.943 0.2065 0.20943 0.42774 0.31569 0.65054 0.411 0.25516 0.10914 0.45635 0.43556 0.45635 0.71337v0.33a0.53814 0.53814 134.53 0 1-0.52925 0.53807l-5.2361 0.08655a0.98618 0.98618 29.294 0 1-0.86632-0.48603c-0.1284-0.21829-0.1949-0.6614 0.01095-0.8771z" fill="#5a7247" style="paint-order:markers stroke fill"/>
  </g>
  <path d="m121.75 72.111c13.488 2.7876 18.635-4.1263 19.378-13.695-13.136-3.4687-19.58 2.3201-19.378 13.695z" fill="#88b04b" style="paint-order:markers stroke fill"/>
  <path d="m79.068 73.521-0.39045 36.773c-0.0075 0.7098-0.57056 1.4368-1.2303 1.698-0.74889 0.29653-1.4529 0.65593-2.1213 1.065-0.53571 0.32788-1.2704 1.0464-1.4379 1.6488-0.15326 0.55117-0.14748 1.1294 0.02406 1.7061 0.2197 0.73852 1.2641 1.2777 2.0379 1.3064 4.2166 0.15612 13.369 0.24204 17.741-0.10496 0.79217-0.0629 1.9722-0.62089 2.0815-1.3772 0.10793-0.74683 0.0165-1.6686-0.20671-2.3259-0.18288-0.53852-1.0374-1.0349-1.57-1.2841l-2.0103-0.94095c-0.66778-0.31257-1.2318-1.1632-1.2517-1.9003-0.23223-8.6026 0.29629-17.555-0.84786-26.197-0.21031-1.5885-1.1851-3.9438-2.2677-5.1251-2.5723-2.807-5.5676-4.5977-8.5505-4.9418z" fill="#5a7247" stroke-width=".55021" style="paint-order:markers stroke fill"/>
 </g>
</svg>
